<svg xmlns="http://www.w3.org/2000/svg" xmlns:xlink="http://www.w3.org/1999/xlink" x="0px" y="0px"
	 viewBox="0 0 520 520" xml:space="preserve" fill="#C4C4C4" fill-opacity="0.2">
		<path d="M464,128h-16v-16c0-26.51-21.49-48-48-48h-16V48c0-26.51-21.49-48-48-48H48C21.49,0,0,21.49,0,48v288
			c0,26.51,21.49,48,48,48h16v16c0,26.51,21.49,48,48,48h16v16c0,26.51,21.49,48,48,48h288c26.51,0,48-21.49,48-48V176
			C512,149.49,490.51,128,464,128z M48,352c-8.837,0-16-7.163-16-16V48c0-8.837,7.163-16,16-16h288c8.837,0,16,7.163,16,16v288
			c0,8.837-7.163,16-16,16H48z M112,416c-8.837,0-16-7.163-16-16v-16h240c26.51,0,48-21.49,48-48V96h16c8.837,0,16,7.163,16,16v288
			c0,8.837-7.163,16-16,16H112z M480,464c0,8.837-7.163,16-16,16H176c-8.837,0-16-7.163-16-16v-16h240c26.51,0,48-21.49,48-48V160
			h16c8.837,0,16,7.163,16,16V464z"/>
</svg>
