<svg width="375" height="623" viewBox="0 0 375 623" fill="none" xmlns="http://www.w3.org/2000/svg">
<g opacity="0.75">
<line opacity="0.14" y1="-0.125" x2="45.2457" y2="-0.125" transform="matrix(0.905034 -0.425339 0.426255 0.904603 26.7134 610.441)" stroke="#C4C4C4" stroke-width="0.25"/>
<line y1="-0.125" x2="46.8508" y2="-0.125" transform="matrix(-0.899734 0.436439 -0.437369 -0.899282 108.611 609.238)" stroke="#C4C4C4" stroke-width="0.25"/>
<line opacity="0.14" y1="-0.125" x2="45.2457" y2="-0.125" transform="matrix(0.905034 0.425339 -0.426255 0.904603 66.4579 591.196)" stroke="#C4C4C4" stroke-width="0.25"/>
<line y1="-0.125" x2="44.696" y2="-0.125" transform="matrix(0.889219 0.457481 -0.458432 0.888729 26.7134 610.441)" stroke="#C4C4C4" stroke-width="0.25"/>
<line x1="108.486" y1="653.887" x2="108.486" y2="609.238" stroke="#C4C4C4" stroke-width="0.25"/>
<line x1="27.7927" y1="653.887" x2="27.7927" y2="609.238" stroke="#C4C4C4" stroke-width="0.25"/>
<ellipse opacity="0.14" cx="66.4579" cy="591.196" rx="3.61314" ry="3.60839" fill="#C4C4C4"/>
<ellipse opacity="0.14" cx="107.407" cy="610.441" rx="3.61314" ry="3.60839" fill="#C4C4C4"/>
<ellipse opacity="0.14" cx="26.7134" cy="610.441" rx="3.61314" ry="3.60839" fill="#C4C4C4"/>
</g>
<g opacity="0.2">
<line y1="-0.25" x2="45.2457" y2="-0.25" transform="matrix(0.905034 -0.425339 0.426255 0.904603 268.794 610.441)" stroke="#C4C4C4" stroke-width="0.5"/>
<line y1="-0.125" x2="46.8508" y2="-0.125" transform="matrix(-0.899734 0.436439 -0.437369 -0.899282 350.692 609.238)" stroke="#C4C4C4" stroke-width="0.25"/>
<line y1="-0.25" x2="45.2457" y2="-0.25" transform="matrix(0.905034 0.425339 -0.426255 0.904603 308.538 591.196)" stroke="#C4C4C4" stroke-width="0.5"/>
<line y1="-0.125" x2="44.696" y2="-0.125" transform="matrix(0.889219 0.457481 -0.458432 0.888729 268.794 610.441)" stroke="#C4C4C4" stroke-width="0.25"/>
<line x1="350.567" y1="653.887" x2="350.567" y2="609.238" stroke="#C4C4C4" stroke-width="0.25"/>
<line x1="269.873" y1="653.887" x2="269.873" y2="609.238" stroke="#C4C4C4" stroke-width="0.25"/>
<ellipse cx="308.538" cy="591.196" rx="3.61314" ry="3.60839" fill="#C4C4C4"/>
<ellipse cx="349.487" cy="610.441" rx="3.61314" ry="3.60839" fill="#C4C4C4"/>
<ellipse cx="268.794" cy="610.441" rx="3.61314" ry="3.60839" fill="#C4C4C4"/>
</g>
<g opacity="0.2">
<line x1="350.567" y1="653.887" x2="350.567" y2="609.237" stroke="#C4C4C4" stroke-width="0.25"/>
<ellipse cx="349.487" cy="610.44" rx="3.61314" ry="3.60839" fill="#C4C4C4"/>
</g>
<g opacity="0.2">
<line y1="-0.125" x2="46.8508" y2="-0.125" transform="matrix(-0.899734 0.436439 -0.437369 -0.899282 26.7134 525.042)" stroke="#C4C4C4" stroke-width="0.25"/>
<line y1="-0.125" x2="46.8508" y2="-0.125" transform="matrix(-0.899734 0.436439 -0.437369 -0.899282 26.7134 568.343)" stroke="#C4C4C4" stroke-width="0.25"/>
<line y1="-0.125" x2="45.2457" y2="-0.125" transform="matrix(0.905034 0.425339 -0.426255 0.904603 -15.4399 507)" stroke="#C4C4C4" stroke-width="0.25"/>
<line x1="26.5884" y1="569.691" x2="26.5884" y2="525.042" stroke="#C4C4C4" stroke-width="0.25"/>
<ellipse cx="25.5089" cy="568.343" rx="4.81752" ry="4.81119" fill="#C4C4C4"/>
<ellipse cx="25.509" cy="526.245" rx="3.61314" ry="3.60839" fill="#C4C4C4"/>
</g>
<g opacity="0.2">
<line opacity="0.25" y1="-0.125" x2="81.1511" y2="-0.125" transform="matrix(0.904979 -0.425457 0.426137 0.904659 -6.36194 508)" stroke="#C4C4C4" stroke-width="0.25"/>
<line y1="-0.25" x2="84.0303" y2="-0.25" transform="matrix(-0.899675 0.436559 -0.437249 -0.899341 140.518 505.842)" stroke="#C4C4C4" stroke-width="0.5"/>
<line opacity="0.4" y1="-0.125" x2="84.0303" y2="-0.125" transform="matrix(-0.899675 0.436559 -0.437249 -0.899341 140.518 583.526)" stroke="#C4C4C4" stroke-width="0.25"/>
<line opacity="0.4" y1="-0.125" x2="81.1511" y2="-0.125" transform="matrix(0.904979 0.425457 -0.426137 0.904659 64.9181 473.474)" stroke="#C4C4C4" stroke-width="0.25"/>
<line y1="-0.25" x2="80.1659" y2="-0.25" transform="matrix(0.889156 0.457604 -0.45831 0.888793 -6.36194 508)" stroke="#C4C4C4" stroke-width="0.5"/>
<line x1="66.9531" y1="622.63" x2="66.9531" y2="542.526" stroke="#C4C4C4" stroke-width="0.25"/>
<line x1="140.393" y1="585.946" x2="140.393" y2="505.842" stroke="#C4C4C4" stroke-width="0.25"/>
<line y1="-0.125" x2="80.1659" y2="-0.125" transform="matrix(0.889156 0.457604 -0.45831 0.888793 -6.36194 585.684)" stroke="#C4C4C4" stroke-width="0.25"/>
<ellipse cx="64.9182" cy="542.527" rx="10.8" ry="10.7895" fill="#C4C4C4"/>
<ellipse cx="138.358" cy="583.526" rx="8.64" ry="8.63158" fill="#C4C4C4"/>
<ellipse cx="64.9182" cy="622.368" rx="8.64" ry="8.63158" fill="#C4C4C4"/>
<ellipse cx="64.9181" cy="473.474" rx="6.48" ry="6.47368" fill="#C4C4C4"/>
</g>
<g opacity="0.2">
<line opacity="0.4" y1="-0.125" x2="45.2457" y2="-0.125" transform="matrix(0.905034 -0.425339 0.426255 0.904603 267.589 526.245)" stroke="#C4C4C4" stroke-width="0.25"/>
<line y1="-0.125" x2="46.8508" y2="-0.125" transform="matrix(-0.899734 0.436439 -0.437369 -0.899282 349.487 525.042)" stroke="#C4C4C4" stroke-width="0.25"/>
<line y1="-0.125" x2="46.8508" y2="-0.125" transform="matrix(-0.899734 0.436439 -0.437369 -0.899282 349.487 568.343)" stroke="#C4C4C4" stroke-width="0.25"/>
<line y1="-0.125" x2="45.2457" y2="-0.125" transform="matrix(0.905034 0.425339 -0.426255 0.904603 307.334 507)" stroke="#C4C4C4" stroke-width="0.25"/>
<line opacity="0.4" y1="-0.125" x2="44.696" y2="-0.125" transform="matrix(0.889219 0.457481 -0.458432 0.888729 267.589 526.245)" stroke="#C4C4C4" stroke-width="0.25"/>
<line x1="308.288" y1="590.139" x2="308.288" y2="545.489" stroke="#C4C4C4" stroke-width="0.5"/>
<line x1="349.362" y1="569.691" x2="349.362" y2="525.042" stroke="#C4C4C4" stroke-width="0.25"/>
<line opacity="0.4" x1="268.669" y1="569.691" x2="268.669" y2="525.042" stroke="#C4C4C4" stroke-width="0.25"/>
<line opacity="0.4" y1="-0.125" x2="44.696" y2="-0.125" transform="matrix(0.889219 0.457481 -0.458432 0.888729 267.589 569.545)" stroke="#C4C4C4" stroke-width="0.25"/>
<ellipse cx="348.283" cy="568.343" rx="4.81752" ry="4.81119" fill="#C4C4C4"/>
<ellipse opacity="0.4" cx="267.589" cy="569.546" rx="4.81752" ry="4.81119" fill="#C4C4C4"/>
<ellipse cx="307.334" cy="507" rx="3.61314" ry="3.60839" fill="#C4C4C4"/>
<ellipse opacity="0.4" cx="267.589" cy="526.245" rx="3.61314" ry="3.60839" fill="#C4C4C4"/>
</g>
<g opacity="0.2">
<line x1="349.362" y1="569.692" x2="349.362" y2="525.042" stroke="#C4C4C4" stroke-width="0.25"/>
</g>
<g opacity="0.2">
<line opacity="0.25" y1="-0.125" x2="46.8508" y2="-0.125" transform="matrix(-0.899734 0.436439 -0.437369 -0.899282 27.9177 440.846)" stroke="#C4C4C4" stroke-width="0.25"/>
<line opacity="0.25" y1="-0.125" x2="46.8508" y2="-0.125" transform="matrix(-0.899734 0.436439 -0.437369 -0.899282 27.9177 484.147)" stroke="#C4C4C4" stroke-width="0.25"/>
<line opacity="0.25" y1="-0.125" x2="45.2457" y2="-0.125" transform="matrix(0.905034 0.425339 -0.426255 0.904603 -14.2356 422.804)" stroke="#C4C4C4" stroke-width="0.25"/>
<line opacity="0.25" x1="27.7927" y1="485.496" x2="27.7927" y2="440.846" stroke="#C4C4C4" stroke-width="0.25"/>
<ellipse opacity="0.25" cx="26.7133" cy="484.147" rx="4.81752" ry="4.81119" fill="#C4C4C4"/>
<ellipse opacity="0.25" cx="26.7134" cy="442.049" rx="3.61314" ry="3.60839" fill="#C4C4C4"/>
</g>
<g opacity="0.35">
<line opacity="0.5" y1="-0.125" x2="45.2457" y2="-0.125" transform="matrix(0.905034 -0.425339 0.426255 0.904603 107.407 442.049)" stroke="#C4C4C4" stroke-width="0.25"/>
<line opacity="0.4" y1="-0.125" x2="46.8508" y2="-0.125" transform="matrix(-0.899734 0.436439 -0.437369 -0.899282 189.305 484.147)" stroke="#C4C4C4" stroke-width="0.25"/>
<line opacity="0.5" y1="-0.125" x2="45.2457" y2="-0.125" transform="matrix(0.905034 0.425339 -0.426255 0.904603 147.151 422.804)" stroke="#C4C4C4" stroke-width="0.25"/>
<line y1="-0.125" x2="44.696" y2="-0.125" transform="matrix(0.889219 0.457481 -0.458432 0.888729 107.407 442.049)" stroke="#C4C4C4" stroke-width="0.25"/>
<line opacity="0.4" x1="148.231" y1="505.943" x2="148.231" y2="461.294" stroke="#C4C4C4" stroke-width="0.25"/>
<line x1="189.18" y1="485.496" x2="189.18" y2="440.846" stroke="#C4C4C4" stroke-width="0.25"/>
<line x1="108.486" y1="485.496" x2="108.486" y2="440.846" stroke="#C4C4C4" stroke-width="0.25"/>
<line opacity="0.4" y1="-0.125" x2="44.696" y2="-0.125" transform="matrix(0.889219 0.457481 -0.458432 0.888729 107.407 485.35)" stroke="#C4C4C4" stroke-width="0.25"/>
<ellipse cx="147.151" cy="505.797" rx="4.81752" ry="4.81119" fill="#C4C4C4"/>
<ellipse cx="188.1" cy="442.049" rx="3.61314" ry="3.60839" fill="#C4C4C4"/>
</g>
<g opacity="0.35">
<line opacity="0.5" y1="-0.125" x2="45.2457" y2="-0.125" transform="matrix(0.905034 -0.425339 0.426255 0.904603 188.1 442.049)" stroke="#C4C4C4" stroke-width="0.25"/>
<line opacity="0.5" y1="-0.125" x2="46.8508" y2="-0.125" transform="matrix(-0.899734 0.436439 -0.437369 -0.899282 269.998 440.846)" stroke="#C4C4C4" stroke-width="0.25"/>
<line opacity="0.4" y1="-0.125" x2="46.8508" y2="-0.125" transform="matrix(-0.899734 0.436439 -0.437369 -0.899282 269.998 484.147)" stroke="#C4C4C4" stroke-width="0.25"/>
<line opacity="0.5" y1="-0.125" x2="45.2457" y2="-0.125" transform="matrix(0.905034 0.425339 -0.426255 0.904603 227.845 422.804)" stroke="#C4C4C4" stroke-width="0.25"/>
<line opacity="0.4" x1="228.924" y1="505.943" x2="228.924" y2="461.294" stroke="#C4C4C4" stroke-width="0.25"/>
<line opacity="0.5" x1="269.873" y1="485.496" x2="269.873" y2="440.846" stroke="#C4C4C4" stroke-width="0.25"/>
<line opacity="0.4" y1="-0.125" x2="44.696" y2="-0.125" transform="matrix(0.889219 0.457481 -0.458432 0.888729 188.1 485.35)" stroke="#C4C4C4" stroke-width="0.25"/>
<ellipse opacity="0.4" cx="227.845" cy="505.797" rx="4.81752" ry="4.81119" fill="#C4C4C4"/>
<ellipse opacity="0.5" cx="268.794" cy="442.049" rx="3.61314" ry="3.60839" fill="#C4C4C4"/>
</g>
<g opacity="0.35">
<line opacity="0.5" y1="-0.125" x2="45.2457" y2="-0.125" transform="matrix(0.905034 -0.425339 0.426255 0.904603 268.794 442.049)" stroke="#C4C4C4" stroke-width="0.25"/>
<line opacity="0.25" y1="-0.125" x2="46.8508" y2="-0.125" transform="matrix(-0.899734 0.436439 -0.437369 -0.899282 350.692 440.846)" stroke="#C4C4C4" stroke-width="0.25"/>
<line opacity="0.25" y1="-0.125" x2="46.8508" y2="-0.125" transform="matrix(-0.899734 0.436439 -0.437369 -0.899282 350.692 484.147)" stroke="#C4C4C4" stroke-width="0.25"/>
<line opacity="0.5" y1="-0.125" x2="45.2457" y2="-0.125" transform="matrix(0.905034 0.425339 -0.426255 0.904603 308.538 422.804)" stroke="#C4C4C4" stroke-width="0.25"/>
<line opacity="0.5" y1="-0.125" x2="44.696" y2="-0.125" transform="matrix(0.889219 0.457481 -0.458432 0.888729 268.794 442.049)" stroke="#C4C4C4" stroke-width="0.25"/>
<line opacity="0.99" x1="309.618" y1="505.943" x2="309.618" y2="461.294" stroke="#C4C4C4" stroke-width="0.25"/>
<line opacity="0.25" x1="350.567" y1="485.496" x2="350.567" y2="440.846" stroke="#C4C4C4" stroke-width="0.25"/>
<line opacity="0.5" x1="269.873" y1="485.496" x2="269.873" y2="440.846" stroke="#C4C4C4" stroke-width="0.25"/>
<line y1="-0.125" x2="44.696" y2="-0.125" transform="matrix(0.889219 0.457481 -0.458432 0.888729 268.794 485.35)" stroke="#C4C4C4" stroke-width="0.25"/>
<ellipse cx="308.538" cy="461.294" rx="6.0219" ry="6.01399" fill="#C4C4C4"/>
<ellipse opacity="0.25" cx="349.487" cy="484.147" rx="4.81752" ry="4.81119" fill="#C4C4C4"/>
<ellipse cx="308.538" cy="505.797" rx="4.81752" ry="4.81119" fill="#C4C4C4"/>
<ellipse opacity="0.5" cx="308.538" cy="422.804" rx="3.61314" ry="3.60839" fill="#C4C4C4"/>
<ellipse opacity="0.25" cx="349.487" cy="442.049" rx="3.61314" ry="3.60839" fill="#C4C4C4"/>
</g>
<g opacity="0.2">
<line opacity="0.25" x1="350.567" y1="485.496" x2="350.567" y2="440.846" stroke="#C4C4C4" stroke-width="0.25"/>
<ellipse opacity="0.25" cx="349.487" cy="485.35" rx="4.81752" ry="4.81119" fill="#C4C4C4"/>
<ellipse opacity="0.25" cx="349.487" cy="442.049" rx="3.61314" ry="3.60839" fill="#C4C4C4"/>
</g>
<g opacity="0.4">
<line opacity="0.25" y1="-0.125" x2="46.8508" y2="-0.125" transform="matrix(-0.899734 0.436439 -0.437369 -0.899282 27.9177 356.65)" stroke="#C4C4C4" stroke-width="0.25"/>
<line opacity="0.25" y1="-0.125" x2="46.8508" y2="-0.125" transform="matrix(-0.899734 0.436439 -0.437369 -0.899282 27.9177 399.951)" stroke="#C4C4C4" stroke-width="0.25"/>
<line opacity="0.25" y1="-0.125" x2="45.2457" y2="-0.125" transform="matrix(0.905034 0.425339 -0.426255 0.904603 -14.2356 338.608)" stroke="#C4C4C4" stroke-width="0.25"/>
<line opacity="0.25" x1="27.7927" y1="401.3" x2="27.7927" y2="356.65" stroke="#C4C4C4" stroke-width="0.25"/>
<ellipse opacity="0.25" cx="26.7133" cy="399.951" rx="4.81752" ry="4.81119" fill="#C4C4C4"/>
<ellipse opacity="0.25" cx="26.7134" cy="357.853" rx="3.61314" ry="3.60839" fill="#C4C4C4"/>
</g>
<g opacity="0.35">
<line opacity="0.25" y1="-0.125" x2="45.2457" y2="-0.125" transform="matrix(0.905034 -0.425339 0.426255 0.904603 26.7134 357.853)" stroke="#C4C4C4" stroke-width="0.25"/>
<line opacity="0.5" y1="-0.125" x2="46.8508" y2="-0.125" transform="matrix(-0.899734 0.436439 -0.437369 -0.899282 108.611 356.65)" stroke="#C4C4C4" stroke-width="0.25"/>
<line opacity="0.5" y1="-0.125" x2="46.8508" y2="-0.125" transform="matrix(-0.899734 0.436439 -0.437369 -0.899282 108.611 399.951)" stroke="#C4C4C4" stroke-width="0.25"/>
<line opacity="0.5" y1="-0.125" x2="45.2457" y2="-0.125" transform="matrix(0.905034 0.425339 -0.426255 0.904603 66.4579 338.608)" stroke="#C4C4C4" stroke-width="0.25"/>
<line opacity="0.25" y1="-0.125" x2="44.696" y2="-0.125" transform="matrix(0.889219 0.457481 -0.458432 0.888729 26.7134 357.853)" stroke="#C4C4C4" stroke-width="0.25"/>
<line x1="67.5372" y1="421.747" x2="67.5372" y2="377.098" stroke="#C4C4C4" stroke-width="0.25"/>
<line opacity="0.5" x1="108.486" y1="401.3" x2="108.486" y2="356.65" stroke="#C4C4C4" stroke-width="0.25"/>
<line opacity="0.25" x1="27.7927" y1="401.3" x2="27.7927" y2="356.65" stroke="#C4C4C4" stroke-width="0.25"/>
<line opacity="0.25" y1="-0.125" x2="44.696" y2="-0.125" transform="matrix(0.889219 0.457481 -0.458432 0.888729 26.7134 401.154)" stroke="#C4C4C4" stroke-width="0.25"/>
<ellipse opacity="0.5" cx="107.407" cy="399.951" rx="4.81752" ry="4.81119" fill="#C4C4C4"/>
<ellipse opacity="0.25" cx="26.7134" cy="401.154" rx="4.81752" ry="4.81119" fill="#C4C4C4"/>
<ellipse cx="66.4579" cy="338.608" rx="3.61314" ry="3.60839" fill="#C4C4C4"/>
</g>
<g opacity="0.35">
<line opacity="0.5" y1="-0.125" x2="45.2457" y2="-0.125" transform="matrix(0.905034 0.425339 -0.426255 0.904603 227.845 338.608)" stroke="#C4C4C4" stroke-width="0.25"/>
<line opacity="0.5" x1="189.18" y1="401.3" x2="189.18" y2="356.65" stroke="#C4C4C4" stroke-width="0.25"/>
<line y1="-0.125" x2="44.696" y2="-0.125" transform="matrix(0.889219 0.457481 -0.458432 0.888729 188.1 401.154)" stroke="#C4C4C4" stroke-width="0.25"/>
<ellipse opacity="0.5" cx="188.1" cy="401.154" rx="4.81752" ry="4.81119" fill="#C4C4C4"/>
<ellipse opacity="0.5" cx="268.794" cy="357.853" rx="3.61314" ry="3.60839" fill="#C4C4C4"/>
</g>
<g opacity="0.35">
<line opacity="0.5" y1="-0.125" x2="45.2457" y2="-0.125" transform="matrix(0.905034 -0.425339 0.426255 0.904603 268.794 357.853)" stroke="#C4C4C4" stroke-width="0.25"/>
<line opacity="0.5" y1="-0.125" x2="46.8508" y2="-0.125" transform="matrix(-0.899734 0.436439 -0.437369 -0.899282 350.692 399.951)" stroke="#C4C4C4" stroke-width="0.25"/>
<line opacity="0.5" y1="-0.125" x2="45.2457" y2="-0.125" transform="matrix(0.905034 0.425339 -0.426255 0.904603 308.538 338.608)" stroke="#C4C4C4" stroke-width="0.25"/>
<line opacity="0.25" x1="350.567" y1="401.3" x2="350.567" y2="356.65" stroke="#C4C4C4" stroke-width="0.25"/>
<line opacity="0.5" y1="-0.125" x2="44.696" y2="-0.125" transform="matrix(0.889219 0.457481 -0.458432 0.888729 268.794 401.154)" stroke="#C4C4C4" stroke-width="0.25"/>
<ellipse opacity="0.5" cx="308.538" cy="421.601" rx="4.81752" ry="4.81119" fill="#C4C4C4"/>
<ellipse opacity="0.25" cx="349.487" cy="357.853" rx="3.61314" ry="3.60839" fill="#C4C4C4"/>
</g>
<g opacity="0.25">
<line x1="350.567" y1="401.3" x2="350.567" y2="356.65" stroke="#C4C4C4" stroke-width="0.25"/>
<ellipse cx="349.487" cy="357.853" rx="3.61314" ry="3.60839" fill="#C4C4C4"/>
</g>
<g opacity="0.4">
<line opacity="0.25" y1="-0.125" x2="46.8508" y2="-0.125" transform="matrix(-0.899734 0.436439 -0.437369 -0.899282 28.9178 274.238)" stroke="#C4C4C4" stroke-width="0.25"/>
<line opacity="0.25" y1="-0.125" x2="46.8508" y2="-0.125" transform="matrix(-0.899734 0.436439 -0.437369 -0.899282 28.9178 317.539)" stroke="#C4C4C4" stroke-width="0.25"/>
<line opacity="0.25" y1="-0.125" x2="45.2457" y2="-0.125" transform="matrix(0.905034 0.425339 -0.426255 0.904603 -13.2355 256.196)" stroke="#C4C4C4" stroke-width="0.25"/>
<line opacity="0.25" x1="28.7928" y1="318.887" x2="28.7928" y2="274.238" stroke="#C4C4C4" stroke-width="0.25"/>
<ellipse opacity="0.25" cx="27.7135" cy="275.441" rx="3.61314" ry="3.60839" fill="#C4C4C4"/>
</g>
<g opacity="0.35">
<line opacity="0.5" y1="-0.125" x2="45.2457" y2="-0.125" transform="matrix(0.905034 -0.425339 0.426255 0.904603 27.7134 275.441)" stroke="#C4C4C4" stroke-width="0.25"/>
<line opacity="0.5" y1="-0.125" x2="46.8508" y2="-0.125" transform="matrix(-0.899734 0.436439 -0.437369 -0.899282 109.611 274.238)" stroke="#C4C4C4" stroke-width="0.25"/>
<line opacity="0.5" y1="-0.125" x2="46.8508" y2="-0.125" transform="matrix(-0.899734 0.436439 -0.437369 -0.899282 109.611 317.539)" stroke="#C4C4C4" stroke-width="0.25"/>
<line opacity="0.5" y1="-0.125" x2="45.2457" y2="-0.125" transform="matrix(0.905034 0.425339 -0.426255 0.904603 67.4579 256.196)" stroke="#C4C4C4" stroke-width="0.25"/>
<line opacity="0.5" y1="-0.125" x2="44.696" y2="-0.125" transform="matrix(0.889219 0.457481 -0.458432 0.888729 27.7134 275.441)" stroke="#C4C4C4" stroke-width="0.25"/>
<line opacity="0.5" x1="68.5372" y1="339.335" x2="68.5372" y2="294.685" stroke="#C4C4C4" stroke-width="0.25"/>
<line opacity="0.5" x1="109.486" y1="318.887" x2="109.486" y2="274.238" stroke="#C4C4C4" stroke-width="0.25"/>
<line opacity="0.25" x1="28.7927" y1="318.887" x2="28.7927" y2="274.238" stroke="#C4C4C4" stroke-width="0.25"/>
<line opacity="0.25" y1="-0.125" x2="44.696" y2="-0.125" transform="matrix(0.889219 0.457481 -0.458432 0.888729 27.7134 318.741)" stroke="#C4C4C4" stroke-width="0.25"/>
<ellipse opacity="0.5" cx="108.407" cy="275.441" rx="3.61314" ry="3.60839" fill="#C4C4C4"/>
</g>
<g opacity="0.35">
<line opacity="0.5" y1="-0.125" x2="45.2457" y2="-0.125" transform="matrix(0.905034 -0.425339 0.426255 0.904603 108.407 275.441)" stroke="#C4C4C4" stroke-width="0.25"/>
<line opacity="0.5" y1="-0.125" x2="44.696" y2="-0.125" transform="matrix(0.889219 0.457481 -0.458432 0.888729 108.407 275.441)" stroke="#C4C4C4" stroke-width="0.25"/>
<line opacity="0.5" x1="149.231" y1="339.335" x2="149.231" y2="294.685" stroke="#C4C4C4" stroke-width="0.25"/>
<line opacity="0.5" x1="190.18" y1="318.887" x2="190.18" y2="274.238" stroke="#C4C4C4" stroke-width="0.25"/>
<line opacity="0.5" x1="109.486" y1="318.887" x2="109.486" y2="274.238" stroke="#C4C4C4" stroke-width="0.25"/>
<line opacity="0.5" y1="-0.125" x2="44.696" y2="-0.125" transform="matrix(0.889219 0.457481 -0.458432 0.888729 108.407 318.741)" stroke="#C4C4C4" stroke-width="0.25"/>
</g>
<g opacity="0.35">
<line opacity="0.5" y1="-0.125" x2="46.8508" y2="-0.125" transform="matrix(-0.899734 0.436439 -0.437369 -0.899282 270.998 274.238)" stroke="#C4C4C4" stroke-width="0.25"/>
<line opacity="0.5" y1="-0.125" x2="46.8508" y2="-0.125" transform="matrix(-0.899734 0.436439 -0.437369 -0.899282 270.998 317.539)" stroke="#C4C4C4" stroke-width="0.25"/>
<line opacity="0.5" y1="-0.125" x2="45.2457" y2="-0.125" transform="matrix(0.905034 0.425339 -0.426255 0.904603 228.845 256.196)" stroke="#C4C4C4" stroke-width="0.25"/>
<line opacity="0.5" x1="229.924" y1="339.335" x2="229.924" y2="294.685" stroke="#C4C4C4" stroke-width="0.25"/>
<line opacity="0.5" x1="270.873" y1="318.887" x2="270.873" y2="274.238" stroke="#C4C4C4" stroke-width="0.25"/>
<line opacity="0.5" x1="189.873" y1="319" x2="189.873" y2="296" stroke="#C4C4C4" stroke-width="0.25"/>
<line opacity="0.5" y1="-0.125" x2="44.696" y2="-0.125" transform="matrix(0.889219 0.457481 -0.458432 0.888729 189.1 318.741)" stroke="#C4C4C4" stroke-width="0.25"/>
<ellipse opacity="0.5" cx="269.794" cy="317.538" rx="4.81752" ry="4.81119" fill="#C4C4C4"/>
<ellipse opacity="0.5" cx="228.845" cy="256.196" rx="3.61314" ry="3.60839" fill="#C4C4C4"/>
</g>
<g opacity="0.35">
<line opacity="0.5" x1="242.945" y1="259.887" x2="310.945" y2="227.887" stroke="#C4C4C4" stroke-width="0.25"/>
<line opacity="0.5" x1="243.055" y1="259.889" x2="309.055" y2="293.889" stroke="#C4C4C4" stroke-width="0.25"/>
<line x1="310.873" y1="366.243" x2="310.873" y2="292" stroke="#C4C4C4" stroke-width="0.25"/>
<line opacity="0.5" x1="243.055" y1="331.889" x2="309.055" y2="365.889" stroke="#C4C4C4" stroke-width="0.25"/>
</g>
<g opacity="0.25">
<ellipse opacity="0.5" cx="350.487" cy="318.741" rx="4.81752" ry="4.81119" fill="#C4C4C4"/>
</g>
<g opacity="0.15">
<line opacity="0.25" y1="-0.125" x2="46.8508" y2="-0.125" transform="matrix(-0.899734 0.436439 -0.437369 -0.899282 27.7134 190.042)" stroke="#C4C4C4" stroke-width="0.25"/>
<line opacity="0.25" y1="-0.125" x2="46.8508" y2="-0.125" transform="matrix(-0.899734 0.436439 -0.437369 -0.899282 27.7134 233.343)" stroke="#C4C4C4" stroke-width="0.25"/>
<line opacity="0.25" y1="-0.125" x2="45.2457" y2="-0.125" transform="matrix(0.905034 0.425339 -0.426255 0.904603 -14.4399 172)" stroke="#C4C4C4" stroke-width="0.25"/>
<line opacity="0.25" x1="27.5884" y1="234.691" x2="27.5884" y2="190.042" stroke="#C4C4C4" stroke-width="0.25"/>
<ellipse opacity="0.25" cx="26.5089" cy="233.343" rx="4.81752" ry="4.81119" fill="#C4C4C4"/>
<ellipse opacity="0.25" cx="26.509" cy="191.245" rx="3.61314" ry="3.60839" fill="#C4C4C4"/>
</g>
<g opacity="0.15">
<line opacity="0.25" y1="-0.125" x2="45.2457" y2="-0.125" transform="matrix(0.905034 -0.425339 0.426255 0.904603 26.509 191.245)" stroke="#C4C4C4" stroke-width="0.25"/>
<line opacity="0.5" y1="-0.125" x2="46.8508" y2="-0.125" transform="matrix(-0.899734 0.436439 -0.437369 -0.899282 108.407 190.042)" stroke="#C4C4C4" stroke-width="0.25"/>
<line opacity="0.5" y1="-0.125" x2="46.8508" y2="-0.125" transform="matrix(-0.899734 0.436439 -0.437369 -0.899282 108.407 233.343)" stroke="#C4C4C4" stroke-width="0.25"/>
<line y1="-0.125" x2="45.2457" y2="-0.125" transform="matrix(0.905034 0.425339 -0.426255 0.904603 66.2535 172)" stroke="#C4C4C4" stroke-width="0.25"/>
<line opacity="0.5" y1="-0.125" x2="44.696" y2="-0.125" transform="matrix(0.889219 0.457481 -0.458432 0.888729 26.509 191.245)" stroke="#C4C4C4" stroke-width="0.25"/>
<line opacity="0.5" x1="67.3329" y1="255.139" x2="67.3329" y2="210.489" stroke="#C4C4C4" stroke-width="0.25"/>
<line opacity="0.5" x1="108.282" y1="234.691" x2="108.282" y2="190.042" stroke="#C4C4C4" stroke-width="0.25"/>
<line opacity="0.25" x1="27.5884" y1="234.691" x2="27.5884" y2="190.042" stroke="#C4C4C4" stroke-width="0.25"/>
<line opacity="0.5" y1="-0.125" x2="44.696" y2="-0.125" transform="matrix(0.889219 0.457481 -0.458432 0.888729 26.509 234.545)" stroke="#C4C4C4" stroke-width="0.25"/>
<ellipse opacity="0.5" cx="66.2536" cy="210.49" rx="6.0219" ry="6.01399" fill="#C4C4C4"/>
<ellipse cx="66.2535" cy="172" rx="3.61314" ry="3.60839" fill="#C4C4C4"/>
<ellipse opacity="0.5" cx="107.202" cy="191.245" rx="3.61314" ry="3.60839" fill="#C4C4C4"/>
<ellipse opacity="0.25" cx="26.509" cy="191.245" rx="3.61314" ry="3.60839" fill="#C4C4C4"/>
</g>
<g opacity="0.15">
<line y1="-0.125" x2="45.2457" y2="-0.125" transform="matrix(0.905034 -0.425339 0.426255 0.904603 107.202 191.245)" stroke="#C4C4C4" stroke-width="0.25"/>
<line opacity="0.5" y1="-0.125" x2="44.696" y2="-0.125" transform="matrix(0.889219 0.457481 -0.458432 0.888729 107.202 191.245)" stroke="#C4C4C4" stroke-width="0.25"/>
<line opacity="0.5" x1="148.026" y1="255.139" x2="148.026" y2="210.489" stroke="#C4C4C4" stroke-width="0.25"/>
<line opacity="0.5" x1="108.282" y1="234.691" x2="108.282" y2="190.042" stroke="#C4C4C4" stroke-width="0.25"/>
<line opacity="0.5" y1="-0.125" x2="44.696" y2="-0.125" transform="matrix(0.889219 0.457481 -0.458432 0.888729 107.202 234.545)" stroke="#C4C4C4" stroke-width="0.25"/>
<ellipse opacity="0.5" cx="146.947" cy="210.49" rx="6.0219" ry="6.01399" fill="#C4C4C4"/>
<ellipse cx="146.947" cy="172" rx="3.61314" ry="3.60839" fill="#C4C4C4"/>
</g>
<g opacity="0.15">
<line opacity="0.5" y1="-0.125" x2="46.8508" y2="-0.125" transform="matrix(-0.899734 0.436439 -0.437369 -0.899282 269.794 190.042)" stroke="#C4C4C4" stroke-width="0.25"/>
<line opacity="0.5" y1="-0.125" x2="46.8508" y2="-0.125" transform="matrix(-0.899734 0.436439 -0.437369 -0.899282 269.794 233.343)" stroke="#C4C4C4" stroke-width="0.25"/>
<line opacity="0.5" y1="-0.125" x2="45.2457" y2="-0.125" transform="matrix(0.905034 0.425339 -0.426255 0.904603 227.64 172)" stroke="#C4C4C4" stroke-width="0.25"/>
<line x1="228.72" y1="255.139" x2="228.72" y2="210.489" stroke="#C4C4C4" stroke-width="0.25"/>
<line opacity="0.5" x1="269.669" y1="234.691" x2="269.669" y2="190.042" stroke="#C4C4C4" stroke-width="0.25"/>
<ellipse opacity="0.5" cx="268.589" cy="233.343" rx="4.81752" ry="4.81119" fill="#C4C4C4"/>
<ellipse opacity="0.5" cx="268.589" cy="191.245" rx="3.61314" ry="3.60839" fill="#C4C4C4"/>
</g>
<g opacity="0.15">
<line opacity="0.5" y1="-0.125" x2="45.2457" y2="-0.125" transform="matrix(0.905034 -0.425339 0.426255 0.904603 268.589 191.245)" stroke="#C4C4C4" stroke-width="0.25"/>
<line opacity="0.5" y1="-0.125" x2="46.8508" y2="-0.125" transform="matrix(-0.899734 0.436439 -0.437369 -0.899282 350.487 190.042)" stroke="#C4C4C4" stroke-width="0.25"/>
<line opacity="0.5" y1="-0.125" x2="46.8508" y2="-0.125" transform="matrix(-0.899734 0.436439 -0.437369 -0.899282 350.487 233.343)" stroke="#C4C4C4" stroke-width="0.25"/>
<line opacity="0.5" y1="-0.125" x2="45.2457" y2="-0.125" transform="matrix(0.905034 0.425339 -0.426255 0.904603 308.334 172)" stroke="#C4C4C4" stroke-width="0.25"/>
<line opacity="0.5" y1="-0.125" x2="44.696" y2="-0.125" transform="matrix(0.889219 0.457481 -0.458432 0.888729 268.589 191.245)" stroke="#C4C4C4" stroke-width="0.25"/>
<line opacity="0.5" x1="309.413" y1="255.139" x2="309.413" y2="210.489" stroke="#C4C4C4" stroke-width="0.25"/>
<line opacity="0.25" x1="350.362" y1="234.691" x2="350.362" y2="190.042" stroke="#C4C4C4" stroke-width="0.25"/>
<line opacity="0.5" x1="269.669" y1="234.691" x2="269.669" y2="190.042" stroke="#C4C4C4" stroke-width="0.25"/>
<line opacity="0.5" y1="-0.125" x2="44.696" y2="-0.125" transform="matrix(0.889219 0.457481 -0.458432 0.888729 268.589 234.545)" stroke="#C4C4C4" stroke-width="0.25"/>
<ellipse opacity="0.5" cx="268.589" cy="234.546" rx="4.81752" ry="4.81119" fill="#C4C4C4"/>
<ellipse opacity="0.5" cx="308.334" cy="254.993" rx="4.81752" ry="4.81119" fill="#C4C4C4"/>
<ellipse cx="308.334" cy="172" rx="3.61314" ry="3.60839" fill="#C4C4C4"/>
<ellipse opacity="0.5" cx="349.283" cy="191.245" rx="3.61314" ry="3.60839" fill="#C4C4C4"/>
<ellipse opacity="0.5" cx="268.589" cy="191.245" rx="3.61314" ry="3.60839" fill="#C4C4C4"/>
</g>
<g opacity="0.25">
<ellipse opacity="0.5" cx="349.283" cy="191.245" rx="3.61314" ry="3.60839" fill="#C4C4C4"/>
</g>
<g opacity="0.1">
<line opacity="0.25" y1="-0.125" x2="46.8508" y2="-0.125" transform="matrix(-0.899734 0.436439 -0.437369 -0.899282 28.9178 105.846)" stroke="#C4C4C4" stroke-width="0.25"/>
<line opacity="0.25" y1="-0.125" x2="46.8508" y2="-0.125" transform="matrix(-0.899734 0.436439 -0.437369 -0.899282 28.9178 149.147)" stroke="#C4C4C4" stroke-width="0.25"/>
<line opacity="0.25" y1="-0.125" x2="45.2457" y2="-0.125" transform="matrix(0.905034 0.425339 -0.426255 0.904603 -13.2355 87.8042)" stroke="#C4C4C4" stroke-width="0.25"/>
<line opacity="0.25" x1="28.7928" y1="150.496" x2="28.7928" y2="105.846" stroke="#C4C4C4" stroke-width="0.25"/>
<ellipse opacity="0.25" cx="27.7134" cy="149.147" rx="4.81752" ry="4.81119" fill="#C4C4C4"/>
<ellipse opacity="0.25" cx="27.7135" cy="107.049" rx="3.61314" ry="3.60839" fill="#C4C4C4"/>
</g>
<g opacity="0.1">
<line opacity="0.25" y1="-0.125" x2="45.2457" y2="-0.125" transform="matrix(0.905034 -0.425339 0.426255 0.904603 27.7134 107.049)" stroke="#C4C4C4" stroke-width="0.25"/>
<line y1="-0.125" x2="46.8508" y2="-0.125" transform="matrix(-0.899734 0.436439 -0.437369 -0.899282 109.611 105.846)" stroke="#C4C4C4" stroke-width="0.25"/>
<line y1="-0.125" x2="46.8508" y2="-0.125" transform="matrix(-0.899734 0.436439 -0.437369 -0.899282 109.611 149.147)" stroke="#C4C4C4" stroke-width="0.25"/>
<line y1="-0.125" x2="45.2457" y2="-0.125" transform="matrix(0.905034 0.425339 -0.426255 0.904603 67.4579 87.8042)" stroke="#C4C4C4" stroke-width="0.25"/>
<line opacity="0.25" y1="-0.125" x2="44.696" y2="-0.125" transform="matrix(0.889219 0.457481 -0.458432 0.888729 27.7134 107.049)" stroke="#C4C4C4" stroke-width="0.25"/>
<line x1="68.5372" y1="170.943" x2="68.5372" y2="126.294" stroke="#C4C4C4" stroke-width="0.25"/>
<line x1="109.486" y1="150.496" x2="109.486" y2="105.846" stroke="#C4C4C4" stroke-width="0.25"/>
<line opacity="0.25" x1="28.7927" y1="150.496" x2="28.7927" y2="105.846" stroke="#C4C4C4" stroke-width="0.25"/>
<line opacity="0.25" y1="-0.125" x2="44.696" y2="-0.125" transform="matrix(0.889219 0.457481 -0.458432 0.888729 27.7134 150.35)" stroke="#C4C4C4" stroke-width="0.25"/>
<ellipse cx="67.4579" cy="126.294" rx="6.0219" ry="6.01399" fill="#C4C4C4"/>
<ellipse cx="108.407" cy="149.147" rx="4.81752" ry="4.81119" fill="#C4C4C4"/>
<ellipse opacity="0.25" cx="27.7134" cy="150.35" rx="4.81752" ry="4.81119" fill="#C4C4C4"/>
<ellipse cx="67.4579" cy="170.797" rx="4.81752" ry="4.81119" fill="#C4C4C4"/>
<ellipse cx="67.4579" cy="87.8042" rx="3.61314" ry="3.60839" fill="#C4C4C4"/>
<ellipse cx="108.407" cy="107.049" rx="3.61314" ry="3.60839" fill="#C4C4C4"/>
<ellipse opacity="0.25" cx="27.7134" cy="107.049" rx="3.61314" ry="3.60839" fill="#C4C4C4"/>
</g>
<g opacity="0.1">
<line y1="-0.125" x2="45.2457" y2="-0.125" transform="matrix(0.905034 -0.425339 0.426255 0.904603 108.407 107.049)" stroke="#C4C4C4" stroke-width="0.25"/>
<line y1="-0.125" x2="46.8508" y2="-0.125" transform="matrix(-0.899734 0.436439 -0.437369 -0.899282 190.305 105.846)" stroke="#C4C4C4" stroke-width="0.25"/>
<line y1="-0.125" x2="46.8508" y2="-0.125" transform="matrix(-0.899734 0.436439 -0.437369 -0.899282 190.305 149.147)" stroke="#C4C4C4" stroke-width="0.25"/>
<line y1="-0.125" x2="45.2457" y2="-0.125" transform="matrix(0.905034 0.425339 -0.426255 0.904603 148.151 87.8042)" stroke="#C4C4C4" stroke-width="0.25"/>
<line y1="-0.125" x2="44.696" y2="-0.125" transform="matrix(0.889219 0.457481 -0.458432 0.888729 108.407 107.049)" stroke="#C4C4C4" stroke-width="0.25"/>
<line x1="149.231" y1="170.943" x2="149.231" y2="126.294" stroke="#C4C4C4" stroke-width="0.25"/>
<line x1="190.18" y1="150.496" x2="190.18" y2="105.846" stroke="#C4C4C4" stroke-width="0.25"/>
<line x1="109.486" y1="150.496" x2="109.486" y2="105.846" stroke="#C4C4C4" stroke-width="0.25"/>
<line y1="-0.125" x2="44.696" y2="-0.125" transform="matrix(0.889219 0.457481 -0.458432 0.888729 108.407 150.35)" stroke="#C4C4C4" stroke-width="0.25"/>
<ellipse cx="148.151" cy="126.294" rx="6.0219" ry="6.01399" fill="#C4C4C4"/>
<ellipse cx="108.407" cy="150.35" rx="4.81752" ry="4.81119" fill="#C4C4C4"/>
<ellipse cx="148.151" cy="170.797" rx="4.81752" ry="4.81119" fill="#C4C4C4"/>
<ellipse cx="189.1" cy="107.049" rx="3.61314" ry="3.60839" fill="#C4C4C4"/>
<ellipse cx="108.407" cy="107.049" rx="3.61314" ry="3.60839" fill="#C4C4C4"/>
</g>
<g opacity="0.1">
<line y1="-0.125" x2="45.2457" y2="-0.125" transform="matrix(0.905034 -0.425339 0.426255 0.904603 189.1 107.049)" stroke="#C4C4C4" stroke-width="0.25"/>
<line y1="-0.125" x2="46.8508" y2="-0.125" transform="matrix(-0.899734 0.436439 -0.437369 -0.899282 270.998 105.846)" stroke="#C4C4C4" stroke-width="0.25"/>
<line y1="-0.125" x2="46.8508" y2="-0.125" transform="matrix(-0.899734 0.436439 -0.437369 -0.899282 270.998 149.147)" stroke="#C4C4C4" stroke-width="0.25"/>
<line y1="-0.125" x2="45.2457" y2="-0.125" transform="matrix(0.905034 0.425339 -0.426255 0.904603 228.845 87.8042)" stroke="#C4C4C4" stroke-width="0.25"/>
<line y1="-0.125" x2="44.696" y2="-0.125" transform="matrix(0.889219 0.457481 -0.458432 0.888729 189.1 107.049)" stroke="#C4C4C4" stroke-width="0.25"/>
<line x1="229.924" y1="170.943" x2="229.924" y2="126.294" stroke="#C4C4C4" stroke-width="0.25"/>
<line x1="270.873" y1="150.496" x2="270.873" y2="105.846" stroke="#C4C4C4" stroke-width="0.25"/>
<line x1="190.18" y1="150.496" x2="190.18" y2="105.846" stroke="#C4C4C4" stroke-width="0.25"/>
<ellipse cx="228.845" cy="126.294" rx="6.0219" ry="6.01399" fill="#C4C4C4"/>
<ellipse cx="269.794" cy="149.147" rx="4.81752" ry="4.81119" fill="#C4C4C4"/>
<ellipse cx="228.845" cy="87.8042" rx="3.61314" ry="3.60839" fill="#C4C4C4"/>
<ellipse cx="269.794" cy="107.049" rx="3.61314" ry="3.60839" fill="#C4C4C4"/>
<ellipse cx="189.1" cy="107.049" rx="3.61314" ry="3.60839" fill="#C4C4C4"/>
</g>
<g opacity="0.1">
<line y1="-0.125" x2="45.2457" y2="-0.125" transform="matrix(0.905034 -0.425339 0.426255 0.904603 269.794 107.049)" stroke="#C4C4C4" stroke-width="0.25"/>
<line opacity="0.25" y1="-0.125" x2="46.8508" y2="-0.125" transform="matrix(-0.899734 0.436439 -0.437369 -0.899282 351.692 105.846)" stroke="#C4C4C4" stroke-width="0.25"/>
<line opacity="0.25" y1="-0.125" x2="46.8508" y2="-0.125" transform="matrix(-0.899734 0.436439 -0.437369 -0.899282 351.692 149.147)" stroke="#C4C4C4" stroke-width="0.25"/>
<line opacity="0.25" y1="-0.125" x2="45.2457" y2="-0.125" transform="matrix(0.905034 0.425339 -0.426255 0.904603 309.538 87.8042)" stroke="#C4C4C4" stroke-width="0.25"/>
<line y1="-0.125" x2="44.696" y2="-0.125" transform="matrix(0.889219 0.457481 -0.458432 0.888729 269.794 107.049)" stroke="#C4C4C4" stroke-width="0.25"/>
<line x1="310.618" y1="170.943" x2="310.618" y2="126.294" stroke="#C4C4C4" stroke-width="0.25"/>
<line opacity="0.25" x1="351.567" y1="150.496" x2="351.567" y2="105.846" stroke="#C4C4C4" stroke-width="0.25"/>
<line x1="270.873" y1="150.496" x2="270.873" y2="105.846" stroke="#C4C4C4" stroke-width="0.25"/>
<line y1="-0.125" x2="44.696" y2="-0.125" transform="matrix(0.889219 0.457481 -0.458432 0.888729 269.794 150.35)" stroke="#C4C4C4" stroke-width="0.25"/>
<ellipse cx="309.538" cy="126.294" rx="6.0219" ry="6.01399" fill="#C4C4C4"/>
<ellipse opacity="0.25" cx="350.487" cy="149.147" rx="4.81752" ry="4.81119" fill="#C4C4C4"/>
<ellipse cx="269.794" cy="150.35" rx="4.81752" ry="4.81119" fill="#C4C4C4"/>
<ellipse cx="309.538" cy="170.797" rx="4.81752" ry="4.81119" fill="#C4C4C4"/>
<ellipse cx="309.538" cy="87.8042" rx="3.61314" ry="3.60839" fill="#C4C4C4"/>
<ellipse opacity="0.25" cx="350.487" cy="107.049" rx="3.61314" ry="3.60839" fill="#C4C4C4"/>
<ellipse cx="269.794" cy="107.049" rx="3.61314" ry="3.60839" fill="#C4C4C4"/>
</g>
<g opacity="0.1">
<line opacity="0.25" x1="351.566" y1="150.496" x2="351.566" y2="105.846" stroke="#C4C4C4" stroke-width="0.25"/>
<ellipse opacity="0.25" cx="350.487" cy="150.35" rx="4.81752" ry="4.81119" fill="#C4C4C4"/>
<ellipse opacity="0.25" cx="350.487" cy="107.049" rx="3.61314" ry="3.60839" fill="#C4C4C4"/>
</g>
<g opacity="0.05">
<line y1="-0.125" x2="46.8508" y2="-0.125" transform="matrix(-0.899734 0.436439 -0.437369 -0.899282 28.9178 21.6504)" stroke="#C4C4C4" stroke-width="0.25"/>
<line y1="-0.125" x2="46.8508" y2="-0.125" transform="matrix(-0.899734 0.436439 -0.437369 -0.899282 28.9178 64.9512)" stroke="#C4C4C4" stroke-width="0.25"/>
<line y1="-0.125" x2="45.2457" y2="-0.125" transform="matrix(0.905034 0.425339 -0.426255 0.904603 -13.2355 3.6084)" stroke="#C4C4C4" stroke-width="0.25"/>
<line x1="28.7928" y1="66.2998" x2="28.7928" y2="21.6503" stroke="#C4C4C4" stroke-width="0.25"/>
<ellipse cx="27.7135" cy="22.8531" rx="3.61314" ry="3.60839" fill="#C4C4C4"/>
</g>
<g opacity="0.05">
<line y1="-0.125" x2="45.2457" y2="-0.125" transform="matrix(0.905034 -0.425339 0.426255 0.904603 27.7134 22.8531)" stroke="#C4C4C4" stroke-width="0.25"/>
<line y1="-0.125" x2="46.8508" y2="-0.125" transform="matrix(-0.899734 0.436439 -0.437369 -0.899282 109.611 21.6504)" stroke="#C4C4C4" stroke-width="0.25"/>
<line y1="-0.125" x2="46.8508" y2="-0.125" transform="matrix(-0.899734 0.436439 -0.437369 -0.899282 109.611 64.9512)" stroke="#C4C4C4" stroke-width="0.25"/>
<line y1="-0.125" x2="45.2457" y2="-0.125" transform="matrix(0.905034 0.425339 -0.426255 0.904603 67.4579 3.6084)" stroke="#C4C4C4" stroke-width="0.25"/>
<line y1="-0.125" x2="44.696" y2="-0.125" transform="matrix(0.889219 0.457481 -0.458432 0.888729 27.7134 22.8531)" stroke="#C4C4C4" stroke-width="0.25"/>
<line x1="68.5372" y1="86.7473" x2="68.5372" y2="42.0978" stroke="#C4C4C4" stroke-width="0.25"/>
<line x1="109.486" y1="66.2998" x2="109.486" y2="21.6503" stroke="#C4C4C4" stroke-width="0.25"/>
<line x1="28.7927" y1="66.2998" x2="28.7927" y2="21.6503" stroke="#C4C4C4" stroke-width="0.25"/>
<line y1="-0.125" x2="44.696" y2="-0.125" transform="matrix(0.889219 0.457481 -0.458432 0.888729 27.7134 66.1538)" stroke="#C4C4C4" stroke-width="0.25"/>
<ellipse cx="67.4579" cy="42.0978" rx="6.0219" ry="6.01399" fill="#C4C4C4"/>
<ellipse cx="108.407" cy="64.9511" rx="4.81752" ry="4.81119" fill="#C4C4C4"/>
<ellipse cx="67.4579" cy="86.6015" rx="4.81752" ry="4.81119" fill="#C4C4C4"/>
<ellipse cx="67.4579" cy="3.60839" rx="3.61314" ry="3.60839" fill="#C4C4C4"/>
<ellipse cx="108.407" cy="22.8531" rx="3.61314" ry="3.60839" fill="#C4C4C4"/>
<ellipse cx="27.7134" cy="22.8531" rx="3.61314" ry="3.60839" fill="#C4C4C4"/>
</g>
<g opacity="0.05">
<line y1="-0.125" x2="45.2457" y2="-0.125" transform="matrix(0.905034 -0.425339 0.426255 0.904603 108.407 22.8531)" stroke="#C4C4C4" stroke-width="0.25"/>
<line y1="-0.125" x2="46.8508" y2="-0.125" transform="matrix(-0.899734 0.436439 -0.437369 -0.899282 190.305 21.6504)" stroke="#C4C4C4" stroke-width="0.25"/>
<line y1="-0.125" x2="46.8508" y2="-0.125" transform="matrix(-0.899734 0.436439 -0.437369 -0.899282 190.305 64.9512)" stroke="#C4C4C4" stroke-width="0.25"/>
<line y1="-0.125" x2="45.2457" y2="-0.125" transform="matrix(0.905034 0.425339 -0.426255 0.904603 148.151 3.6084)" stroke="#C4C4C4" stroke-width="0.25"/>
<line y1="-0.125" x2="44.696" y2="-0.125" transform="matrix(0.889219 0.457481 -0.458432 0.888729 108.407 22.8531)" stroke="#C4C4C4" stroke-width="0.25"/>
<line x1="149.231" y1="86.7473" x2="149.231" y2="42.0978" stroke="#C4C4C4" stroke-width="0.25"/>
<line x1="190.18" y1="66.2998" x2="190.18" y2="21.6503" stroke="#C4C4C4" stroke-width="0.25"/>
<line x1="109.486" y1="66.2998" x2="109.486" y2="21.6503" stroke="#C4C4C4" stroke-width="0.25"/>
<line y1="-0.125" x2="44.696" y2="-0.125" transform="matrix(0.889219 0.457481 -0.458432 0.888729 108.407 66.1538)" stroke="#C4C4C4" stroke-width="0.25"/>
<ellipse cx="148.151" cy="42.0978" rx="6.0219" ry="6.01399" fill="#C4C4C4"/>
<ellipse cx="108.407" cy="66.154" rx="4.81752" ry="4.81119" fill="#C4C4C4"/>
<ellipse cx="148.151" cy="3.60839" rx="3.61314" ry="3.60839" fill="#C4C4C4"/>
<ellipse cx="189.1" cy="22.8531" rx="3.61314" ry="3.60839" fill="#C4C4C4"/>
</g>
<g opacity="0.05">
<line y1="-0.125" x2="45.2457" y2="-0.125" transform="matrix(0.905034 -0.425339 0.426255 0.904603 189.1 22.8531)" stroke="#C4C4C4" stroke-width="0.25"/>
<line y1="-0.125" x2="46.8508" y2="-0.125" transform="matrix(-0.899734 0.436439 -0.437369 -0.899282 270.998 21.6504)" stroke="#C4C4C4" stroke-width="0.25"/>
<line y1="-0.125" x2="46.8508" y2="-0.125" transform="matrix(-0.899734 0.436439 -0.437369 -0.899282 270.998 64.9512)" stroke="#C4C4C4" stroke-width="0.25"/>
<line y1="-0.125" x2="45.2457" y2="-0.125" transform="matrix(0.905034 0.425339 -0.426255 0.904603 228.845 3.6084)" stroke="#C4C4C4" stroke-width="0.25"/>
<line y1="-0.125" x2="44.696" y2="-0.125" transform="matrix(0.889219 0.457481 -0.458432 0.888729 189.1 22.8531)" stroke="#C4C4C4" stroke-width="0.25"/>
<line x1="229.924" y1="86.7473" x2="229.924" y2="42.0978" stroke="#C4C4C4" stroke-width="0.25"/>
<line x1="270.873" y1="66.2998" x2="270.873" y2="21.6503" stroke="#C4C4C4" stroke-width="0.25"/>
<line x1="190.18" y1="66.2998" x2="190.18" y2="21.6503" stroke="#C4C4C4" stroke-width="0.25"/>
<line y1="-0.125" x2="44.696" y2="-0.125" transform="matrix(0.889219 0.457481 -0.458432 0.888729 189.1 66.1538)" stroke="#C4C4C4" stroke-width="0.25"/>
<ellipse cx="228.845" cy="42.0978" rx="6.0219" ry="6.01399" fill="#C4C4C4"/>
<ellipse cx="269.794" cy="64.9511" rx="4.81752" ry="4.81119" fill="#C4C4C4"/>
<ellipse cx="228.845" cy="86.6015" rx="4.81752" ry="4.81119" fill="#C4C4C4"/>
<ellipse cx="228.845" cy="3.60839" rx="3.61314" ry="3.60839" fill="#C4C4C4"/>
<ellipse cx="269.794" cy="22.8531" rx="3.61314" ry="3.60839" fill="#C4C4C4"/>
<ellipse cx="189.1" cy="22.8531" rx="3.61314" ry="3.60839" fill="#C4C4C4"/>
</g>
<g opacity="0.05">
<line y1="-0.125" x2="45.2457" y2="-0.125" transform="matrix(0.905034 -0.425339 0.426255 0.904603 269.794 22.8531)" stroke="#C4C4C4" stroke-width="0.25"/>
<line y1="-0.125" x2="46.8508" y2="-0.125" transform="matrix(-0.899734 0.436439 -0.437369 -0.899282 351.692 21.6504)" stroke="#C4C4C4" stroke-width="0.25"/>
<line y1="-0.125" x2="46.8508" y2="-0.125" transform="matrix(-0.899734 0.436439 -0.437369 -0.899282 351.692 64.9512)" stroke="#C4C4C4" stroke-width="0.25"/>
<line y1="-0.125" x2="45.2457" y2="-0.125" transform="matrix(0.905034 0.425339 -0.426255 0.904603 309.538 3.6084)" stroke="#C4C4C4" stroke-width="0.25"/>
<line y1="-0.125" x2="44.696" y2="-0.125" transform="matrix(0.889219 0.457481 -0.458432 0.888729 269.794 22.8531)" stroke="#C4C4C4" stroke-width="0.25"/>
<line x1="310.618" y1="86.7473" x2="310.618" y2="42.0978" stroke="#C4C4C4" stroke-width="0.25"/>
<line x1="351.567" y1="66.2998" x2="351.567" y2="21.6503" stroke="#C4C4C4" stroke-width="0.25"/>
<line x1="270.873" y1="66.2998" x2="270.873" y2="21.6503" stroke="#C4C4C4" stroke-width="0.25"/>
<line y1="-0.125" x2="44.696" y2="-0.125" transform="matrix(0.889219 0.457481 -0.458432 0.888729 269.794 66.1538)" stroke="#C4C4C4" stroke-width="0.25"/>
<ellipse cx="350.487" cy="64.9511" rx="4.81752" ry="4.81119" fill="#C4C4C4"/>
<ellipse cx="269.794" cy="66.154" rx="4.81752" ry="4.81119" fill="#C4C4C4"/>
<ellipse cx="309.538" cy="3.60839" rx="3.61314" ry="3.60839" fill="#C4C4C4"/>
<ellipse cx="350.487" cy="22.8531" rx="3.61314" ry="3.60839" fill="#C4C4C4"/>
</g>
<g opacity="0.05">
<line x1="351.566" y1="66.2998" x2="351.566" y2="21.6503" stroke="#C4C4C4" stroke-width="0.25"/>
<ellipse cx="350.487" cy="66.154" rx="4.81752" ry="4.81119" fill="#C4C4C4"/>
<path fill-rule="evenodd" clip-rule="evenodd" d="M374.998 598.175V598.451L385.012 593.745C384.94 593.688 384.87 593.628 384.802 593.567L374.998 598.175Z" fill="url(#paint0_linear)"/>
<ellipse cx="350.487" cy="22.8531" rx="3.61314" ry="3.60839" fill="#C4C4C4"/>
</g>
<defs>
<linearGradient id="paint0_linear" x1="380.005" y1="593.567" x2="380.005" y2="600.091" gradientUnits="userSpaceOnUse">
<stop offset="0.160221" stop-color="white"/>
<stop offset="0.997002" stop-color="#DADADA"/>
</linearGradient>
</defs>
</svg>
