<svg width="100" height="100" viewBox="0 0 100 100" fill="none" xmlns="http://www.w3.org/2000/svg">
<rect width="100" height="100" fill="black" fill-opacity="0"/>
<circle cx="50" cy="50" r="50" fill="url(#paint0_linear)"/>
<path d="M57.2027 50L68.0057 39.197C69.3314 37.8713 69.3314 35.7219 68.0057 34.3952L65.6048 31.9943C64.2791 30.6686 62.1298 30.6686 60.803 31.9943L50 42.7973L39.197 31.9943C37.8713 30.6686 35.7219 30.6686 34.3952 31.9943L31.9943 34.3952C30.6686 35.7209 30.6686 37.8702 31.9943 39.197L42.7973 50L31.9943 60.803C30.6686 62.1287 30.6686 64.2781 31.9943 65.6048L34.3952 68.0057C35.7209 69.3314 37.8713 69.3314 39.197 68.0057L50 57.2027L60.803 68.0057C62.1287 69.3314 64.2791 69.3314 65.6048 68.0057L68.0057 65.6048C69.3314 64.2791 69.3314 62.1298 68.0057 60.803L57.2027 50Z" fill="white"/>
<defs>
<linearGradient id="paint0_linear" x1="88.5" y1="14" x2="-24" y2="114.5" gradientUnits="userSpaceOnUse">
<stop stop-color="#E50303"/>
<stop offset="0.864261" stop-color="#FC5B37"/>
</linearGradient>
</defs>
</svg>
