<svg width="32" height="32" viewBox="0 0 32 32" fill="none" xmlns="http://www.w3.org/2000/svg">
<rect width="32" height="32" fill="black" fill-opacity="0"/>
<circle cx="16" cy="16" r="16" fill="url(#paint0_linear)"/>
<path d="M18.3048 15.9999L21.7618 12.543C22.186 12.1187 22.186 11.4309 21.7618 11.0064L20.9935 10.2381C20.5692 9.81387 19.8814 9.81387 19.4569 10.2381L15.9999 13.695L12.543 10.2381C12.1187 9.81387 11.4309 9.81387 11.0064 10.2381L10.2381 11.0064C9.81387 11.4306 9.81387 12.1184 10.2381 12.543L13.695 15.9999L10.2381 19.4569C9.81387 19.8811 9.81387 20.5689 10.2381 20.9935L11.0064 21.7618C11.4306 22.186 12.1187 22.186 12.543 21.7618L15.9999 18.3048L19.4569 21.7618C19.8811 22.186 20.5692 22.186 20.9935 21.7618L21.7618 20.9935C22.186 20.5692 22.186 19.8814 21.7618 19.4569L18.3048 15.9999Z" fill="white"/>
<defs>
<linearGradient id="paint0_linear" x1="28.32" y1="4.48" x2="-7.68" y2="36.64" gradientUnits="userSpaceOnUse">
<stop stop-color="#E50303"/>
<stop offset="0.864261" stop-color="#FC5B37"/>
</linearGradient>
</defs>
</svg>
